<?xml version="1.0" encoding="UTF-8"?>
<svg xmlns="http://www.w3.org/2000/svg" version="1.1" viewBox="0 0 64 64">
  <!-- Generator: Adobe Illustrator 29.2.1, SVG Export Plug-In . SVG Version: 2.1.0 Build 116)  -->
  <defs>
    <style>
      .st0 {
        fill: #e07f00;
        opacity: .3;
      }

      .st1 {
        fill: #e0a439;
        mix-blend-mode: multiply;
        opacity: .7;
      }

      .st2 {
        fill: #c13017;
      }

      .st3 {
        isolation: isolate;
      }

      .st4 {
        fill: #fff;
      }

      .st5 {
        fill: #e84b36;
      }

      .st6 {
        fill: #f3a429;
      }
    </style>
  </defs>
  <g class="st3">
    <g id="Layer_1">
      <g>
        <path class="st6" d="M32.2,13.1h0c17,0,30.8,13.8,30.8,30.8v1.4c0,6-4.9,11-11,11H12.3c-6,0-11-4.9-11-11v-1.4c0-17,13.8-30.8,30.8-30.8Z"/>
        <path class="st5" d="M17.6,37.8h0c-4.8-6.3-5.2-14.9-1.5-22.4.9-1.8,1.5-3.8,1.7-5.8h0c.2-1.7,1.8-2.7,3.3-2.3,1.8.4,3.6.5,5.4.3,7.2-.7,14.1,2,18.3,7.5l1.3,1.7c4.3,5.7,5.1,13.5,2.3,20.6-.9,2.3-1.4,4.7-1.4,7.1v.2s-2.9-.2-2.9-.2c-1.7-.1-3.4,0-5,.4-8.3,2.1-16.7-.6-21.5-7Z"/>
        <polygon class="st2" points="27.3 10.4 31.3 10.5 32.6 12.2 38.3 13.4 42.3 16.6 45.3 22.2 45.2 26.1 45 27.9 44 24.4 42.4 21.2 40.1 17.6 37.7 14.7 32 13.6 30.6 11.8 27 11.8 24.5 9 27.3 10.4"/>
        <polygon class="st2" points="36.8 18.7 39.5 23 42.3 28.9 45.1 31.5 45 39.3 45 41.6 43.6 37.6 43.2 32.3 40.2 29.2 38.1 24.2 35.7 19.2 31.1 16.7 36.8 18.7"/>
        <polygon class="st2" points="38.6 41.2 31.6 40.1 26.7 38 25.6 34.5 23 32 19.9 25.5 19.5 22.4 20.8 16.1 19.3 12.2 18.7 15.9 16.4 23.4 18.2 26.8 18.1 31.5 19.8 35.6 22.3 36.4 23.9 39.1 28.3 40.9 30.2 42.1 38.6 41.2"/>
        <polygon class="st2" points="36.2 40 29.3 35.7 26 32.3 25.1 28.5 22.8 27.2 22.4 23.1 21.7 19.4 26.6 25.4 27.5 28.5 29.5 29.6 29.8 31.5 33.4 34.9 36.2 40"/>
        <polygon class="st2" points="32.4 25.1 33.5 23.2 34.7 26.4 32.3 27 32.4 25.1"/>
        <polygon class="st2" points="32.3 29.9 34.3 28.4 33.7 30.6 32.3 29.9"/>
        <polygon class="st2" points="26.1 19.4 24.6 17.4 26.7 18 26.1 19.4"/>
        <polygon class="st2" points="30 15.7 32.9 15.8 29.9 14.3 30 15.7"/>
        <polygon class="st2" points="41.6 33.8 42.1 37.2 39 33.8 41.6 33.8"/>
        <polygon class="st2" points="21.8 11.1 24.5 14 24 16.8 21.8 11.1"/>
        <path class="st1" d="M32.2,14.2h0c15.8,0,28.6,12.8,28.6,28.6h0c0,5.6-4.6,10.2-10.2,10.2H13.7c-5.6,0-10.2-4.6-10.2-10.2h0c0-15.8,12.8-28.6,28.6-28.6Z"/>
        <path class="st0" d="M32.2,14.2h0c15.8,0,28.6,12.8,28.6,28.6h0c0,5.6-4.6,10.2-10.2,10.2H13.7c-5.6,0-10.2-4.6-10.2-10.2h0c0-15.8,12.8-28.6,28.6-28.6Z"/>
        <polygon class="st6" points="10.6 48.9 8.7 43.6 9.2 35.9 10.8 42.5 13.6 47.8 17.5 49.7 10.6 48.9"/>
        <polygon class="st6" points="18.5 49.6 21.8 47.8 25.2 50.3 18.5 49.6"/>
        <polygon class="st4" points="12.8 29 15.8 24.9 23.7 20.9 16.6 22.4 12.8 25 12.8 29"/>
        <polygon class="st4" points="9.2 32 12 30.3 11.7 33.4 9.2 32"/>
        <polygon class="st6" points="46.1 49.7 54.3 49 57.5 45.7 56.6 38.1 54.9 45 51.8 47.3 46.1 49.7"/>
      </g>
    </g>
  </g>
</svg>