<?xml version="1.0" encoding="UTF-8"?>
<svg id="Layer_1" xmlns="http://www.w3.org/2000/svg" version="1.1" viewBox="0 0 64 64">
  <!-- Generator: Adobe Illustrator 29.2.1, SVG Export Plug-In . SVG Version: 2.1.0 Build 116)  -->
  <defs>
    <style>
      .st0 {
        opacity: .2;
      }

      .st0, .st1, .st2 {
        fill: #fff;
      }

      .st1, .st3 {
        opacity: .5;
      }

      .st4 {
        fill: #ff0907;
      }

      .st5 {
        fill: #de9700;
      }
    </style>
  </defs>
  <path class="st5" d="M43.8,24.2s-7.5.4-12,.5c-4.5,0-12-.5-12-.5-1.4,3.1-3.7,18.1-3.7,23.1s5.7,11.8,15.7,11.8,15.7-6.8,15.7-11.8-2.3-20-3.7-23.1Z"/>
  <path class="st4" d="M24.4,52.1c-.1-.3-.3-.5-.4-.8.1.3.3.6.4.8Z"/>
  <path class="st4" d="M39.3,52.1c.1-.3.3-.5.4-.8-.1.3-.3.6-.4.8Z"/>
  <ellipse class="st1" cx="41.1" cy="50.7" rx="5.5" ry="5.1" transform="translate(-23.4 40.5) rotate(-41.9)"/>
  <path class="st5" d="M37.9,48.3c1.1-1.8,3.1-2.7,5.1-2.7,1.9,0,4,.9,5.1,2.7,1.4,2.4,2,6,.2,9.1-.8,1.4-3,2.2-5.3,2.2-2.2,0-4.4-.7-5.3-2.2-1.8-3.1-1.2-6.8.2-9.1Z"/>
  <ellipse class="st1" cx="42" cy="37.2" rx="5.5" ry="5.1" transform="translate(-13.9 32) rotate(-36.3)"/>
  <path class="st5" d="M48.2,40c-.6,1.1-4.1,5.2-7,4.9-3.2-.3-5.4-3.3-4.8-5.9.7-3.7,4.1-6.2,6.7-6.8,4.4-1,7.3,3.8,5.2,7.8Z"/>
  <ellipse class="st1" cx="23.4" cy="50.6" rx="5.1" ry="5.5" transform="translate(-32.2 47.8) rotate(-62.3)"/>
  <path class="st5" d="M26.7,48.3c-1.1-1.8-3.1-2.7-5.1-2.7-1.9,0-4,.9-5.1,2.7-1.4,2.4-2,6-.2,9.1.8,1.4,3,2.2,5.3,2.2,2.2,0,4.4-.7,5.3-2.2,1.8-3.1,1.2-6.8-.2-9.1Z"/>
  <ellipse class="st1" cx="21" cy="37.6" rx="5.1" ry="5.5" transform="translate(-22.1 38.6) rotate(-62.3)"/>
  <path class="st5" d="M14.6,39.9c.6,1.2,4,5.3,6.9,5.1,3.2-.2,5.4-3.2,4.9-5.8-.7-3.7-4-6.3-6.6-6.9-4.4-1.1-7.4,3.6-5.3,7.7Z"/>
  <g>
    <path class="st5" d="M47.5,13.9l-4.8-5.9c-1.3-1.3-4.8-4-10.9-4s-9.6,2.7-10.9,4l-4.8,5.9c2.1,2,0,5.7,0,9.1,0,8.8,10.6,10.8,15.7,10.8s15.7-2.1,15.7-10.8-2-7.2,0-9.1Z"/>
    <path class="st5" d="M23.7,9.6c0-3.1-2.5-5.5-5.5-5.5s-5.5,2.5-5.5,5.5,2.5,5.5,5.5,5.5,5.5-2.5,5.5-5.5Z"/>
    <path class="st5" d="M39.9,9.6c0-3.1,2.5-5.5,5.5-5.5s5.5,2.5,5.5,5.5-2.5,5.5-5.5,5.5-5.5-2.5-5.5-5.5Z"/>
  </g>
  <g class="st3">
    <path class="st2" d="M35.1,23.1c0,1.8-1.5,3.3-3.3,3.3s-3.3-1.5-3.3-3.3,1.5-1.4,3.3-1.4,3.3-.4,3.3,1.4Z"/>
  </g>
  <path class="st1" d="M21,15.1s1.8-3.2,4.2-4.7c2.3-1.5,5.3-2.4,5.3-2.4,0,0-4-.3-6.4,1.8s-3,5.3-3,5.3Z"/>
  <g>
    <path class="st0" d="M23.8,52.6c-.1-.3-.3-.5-.4-.8.1.3.3.6.4.8Z"/>
    <path class="st5" d="M38.6,52.6c.1-.3.3-.5.4-.8-.1.3-.3.6-.4.8Z"/>
  </g>
  <path class="st1" d="M18.9,33.5c-1.1,0-2.2.2-2.6,1.4,0,.3-.1.6,0,.8.2.2.5,0,.8,0,1-.4,2.1-.4,3.1-.1.2,0,.4.1.7.2s.5,0,.6-.2c.2-.3-.8-2-2.7-2Z"/>
  <path class="st1" d="M42.2,33.9c.6-.3,1.2-.4,1.8-.3.3,0,1.4.4.9.9s-.4.2-.6.2c-1,.2-2.1.6-3,1.2-.4.2-.8.4-1.2.4,0,0-.1,0-.1,0,0,0,0-.2,0-.2.4-.8,1.2-1.6,2.1-2.1Z"/>
  <path class="st1" d="M21.1,46.8c-.2,0-.5,0-.7.2-1.3.3-2.6,1.2-3,2.5,0,.2,0,.3,0,.5,0,0,0,0,0,.1,0,0,0,0,.1,0,.3.1.6,0,.9,0s.5-.3.8-.5c.8-.5,1.8-.7,2.7-.9.5,0,1-.2,1.3-.6.4-.6-.3-1.1-.8-1.3s-.8-.2-1.2,0Z"/>
  <path class="st1" d="M42.5,47.1c-1-.1-2.2.2-2.8.9-.3.3-.4.8-.3,1.2,1.1,0,2.1-.3,3-.7.4-.2.8-.5,1-.9,0,0,0-.1,0-.2,0,0,0-.1-.1-.1-.2-.1-.5-.2-.8-.3Z"/>
</svg>