<?xml version="1.0" encoding="UTF-8"?>
<svg id="Layer_1" xmlns="http://www.w3.org/2000/svg" version="1.1" viewBox="0 0 64 64">
  <!-- Generator: Adobe Illustrator 29.2.1, SVG Export Plug-In . SVG Version: 2.1.0 Build 116)  -->
  <defs>
    <style>
      .st0 {
        fill: #c13017;
      }

      .st1 {
        fill: #336664;
      }

      .st2 {
        fill: #ee522b;
      }
    </style>
  </defs>
  <path class="st1" d="M13,20h48c2.2,0,4.1,1.8,4.1,4.1v1.8c0,15.5-12.6,28.1-28.1,28.1h0c-15.5,0-28.1-12.6-28.1-28.1v-1.8c0-2.2,1.8-4.1,4.1-4.1Z" transform="translate(-15.3 37) rotate(-45)"/>
  <path class="st2" d="M13.4,21.2h41.5v5.1c0,11.5-9.3,20.8-20.8,20.8h0c-11.5,0-20.8-9.3-20.8-20.8v-5.1h0Z" transform="translate(-14.1 34.1) rotate(-45)"/>
  <polygon class="st0" points="19.9 39.1 19.8 36.3 23.2 35.8 19.9 39.1"/>
  <polygon class="st0" points="29 43.1 26.6 40.5 31.1 41 29 43.1"/>
  <polygon class="st0" points="32.4 30.4 29.8 30.3 32 26.9 32.4 30.4"/>
  <polygon class="st0" points="35.7 31.4 34.2 28.6 38.4 27.9 35.7 31.4"/>
  <polygon class="st0" points="39.2 37.2 39.8 34.1 41.8 36.6 39.2 37.2"/>
  <polygon class="st0" points="39.6 21.3 36.3 20.9 38.3 17.8 39.6 21.3"/>
</svg>