<?xml version="1.0" encoding="UTF-8"?>
<svg id="Layer_1" xmlns="http://www.w3.org/2000/svg" version="1.1" viewBox="0 0 32 32">
  <!-- Generator: Adobe Illustrator 29.2.1, SVG Export Plug-In . SVG Version: 2.1.0 Build 116)  -->
  <defs>
    <style>
      .st0 {
        opacity: .2;
      }

      .st0, .st1 {
        fill: #fff;
      }

      .st1 {
        opacity: .5;
      }

      .st2 {
        fill: #ff593b;
      }

      .st3 {
        fill: #ff0907;
      }

      .st4 {
        fill: #ee522b;
      }
    </style>
  </defs>
  <path class="st4" d="M21.5,12.2s-3.8.2-6,.2c-2.3,0-6-.2-6-.2-.7,1.6-1.9,9.1-1.9,11.6s2.9,6,7.9,6,7.9-3.4,7.9-6-1.2-10.1-1.9-11.6Z"/>
  <path class="st3" d="M11.8,26.2c0-.1-.1-.3-.2-.4,0,.2.1.3.2.4Z"/>
  <path class="st3" d="M19.2,26.2c0-.1.1-.3.2-.4,0,.2-.1.3-.2.4Z"/>
  <ellipse class="st1" cx="20.2" cy="25.5" rx="2.8" ry="2.6" transform="translate(-11.9 20) rotate(-41.9)"/>
  <path class="st4" d="M18.6,24.3c.5-.9,1.6-1.4,2.5-1.4,1,0,2,.5,2.5,1.4.7,1.2,1,3,0,4.6-.4.7-1.5,1.1-2.6,1.1-1.1,0-2.2-.4-2.6-1.1-.9-1.6-.6-3.4,0-4.6Z"/>
  <ellipse class="st1" cx="20.6" cy="18.7" rx="2.8" ry="2.6" transform="translate(-7.1 15.8) rotate(-36.3)"/>
  <path class="st4" d="M23.7,20.1c-.3.6-2.1,2.6-3.5,2.5-1.6-.1-2.7-1.7-2.4-3,.4-1.8,2.1-3.1,3.4-3.4,2.2-.5,3.7,1.9,2.6,3.9Z"/>
  <ellipse class="st1" cx="11.3" cy="25.4" rx="2.6" ry="2.8" transform="translate(-16.5 23.6) rotate(-62.3)"/>
  <path class="st4" d="M12.9,24.3c-.5-.9-1.6-1.4-2.5-1.4-1,0-2,.5-2.5,1.4-.7,1.2-1,3,0,4.6.4.7,1.5,1.1,2.6,1.1,1.1,0,2.2-.4,2.6-1.1.9-1.6.6-3.4,0-4.6Z"/>
  <ellipse class="st1" cx="10" cy="18.9" rx="2.6" ry="2.8" transform="translate(-11.4 19) rotate(-62.3)"/>
  <path class="st2" d="M6.8,20.1c.3.6,2,2.7,3.5,2.6,1.6-.1,2.7-1.6,2.5-2.9-.3-1.9-2-3.2-3.3-3.5-2.2-.6-3.7,1.8-2.7,3.9Z"/>
  <g>
    <path class="st4" d="M23.4,7l-2.4-3c-.6-.6-2.4-2-5.5-2s-4.8,1.4-5.5,2l-2.4,3c1,1,0,2.9,0,4.6,0,4.4,5.3,5.5,7.9,5.5s7.9-1,7.9-5.5-1-3.6,0-4.6Z"/>
    <path class="st4" d="M11.4,4.8c0-1.5-1.2-2.8-2.8-2.8s-2.8,1.2-2.8,2.8,1.2,2.8,2.8,2.8,2.8-1.2,2.8-2.8Z"/>
    <path class="st4" d="M19.6,4.8c0-1.5,1.2-2.8,2.8-2.8s2.8,1.2,2.8,2.8-1.2,2.8-2.8,2.8-2.8-1.2-2.8-2.8Z"/>
  </g>
  <path class="st1" d="M17.2,11.6c0,.9-.8,1.7-1.7,1.7s-1.7-.8-1.7-1.7.8-.7,1.7-.7,1.7-.2,1.7.7Z"/>
  <path class="st1" d="M10,7.6s.9-1.6,2.1-2.4,2.7-1.2,2.7-1.2c0,0-2-.1-3.2.9s-1.5,2.7-1.5,2.7Z"/>
  <g>
    <path class="st0" d="M11.4,26.5c0-.1-.1-.3-.2-.4,0,.2.1.3.2.4Z"/>
    <path class="st2" d="M18.9,26.5c0-.1.1-.3.2-.4,0,.2-.1.3-.2.4Z"/>
  </g>
  <path class="st4" d="M9,16.9c-.5,0-1.1.1-1.3.7,0,.1,0,.3,0,.4.1,0,.3,0,.4,0,.5-.2,1.1-.2,1.6,0,.1,0,.2,0,.3,0s.2,0,.3-.1c.1-.1-.4-1-1.4-1Z"/>
  <path class="st1" d="M20.7,17c.3-.1.6-.2.9-.2.2,0,.7.2.5.4s-.2,0-.3.1c-.5.1-1,.3-1.5.6-.2.1-.4.2-.6.2,0,0,0,0,0,0,0,0,0,0,0-.1.2-.4.6-.8,1-1Z"/>
  <path class="st1" d="M10.1,23.6c-.1,0-.2,0-.4,0-.6.2-1.3.6-1.5,1.3,0,0,0,.2,0,.3,0,0,0,0,0,0,0,0,0,0,0,0,.1,0,.3,0,.4,0s.3-.2.4-.2c.4-.3.9-.3,1.4-.4.2,0,.5-.1.7-.3.2-.3-.1-.5-.4-.6s-.4,0-.6,0Z"/>
  <path class="st1" d="M20.9,23.7c-.5,0-1.1.1-1.4.5-.1.2-.2.4-.1.6.5,0,1.1-.1,1.5-.4.2,0,.4-.2.5-.4,0,0,0,0,0,0,0,0,0,0,0,0-.1,0-.3-.1-.4-.1Z"/>
</svg>