<?xml version="1.0" encoding="UTF-8"?>
<svg id="Layer_1" xmlns="http://www.w3.org/2000/svg" version="1.1" viewBox="0 0 64 64">
  <!-- Generator: Adobe Illustrator 29.2.1, SVG Export Plug-In . SVG Version: 2.1.0 Build 116)  -->
  <defs>
    <style>
      .st0 {
        opacity: .2;
      }

      .st0, .st1, .st2 {
        fill: #fff;
      }

      .st1, .st3 {
        opacity: .5;
      }

      .st4 {
        fill: #336664;
      }

      .st5 {
        fill: #ff0907;
      }
    </style>
  </defs>
  <path class="st4" d="M44.9,24.1s-7.5.4-12,.5c-4.5,0-12-.5-12-.5-1.4,3.1-3.7,18.2-3.7,23.2s5.7,11.9,15.7,11.9,15.7-6.9,15.7-11.9-2.3-20.1-3.7-23.2Z"/>
  <path class="st5" d="M25.4,52c-.1-.3-.3-.6-.4-.8.1.3.3.6.4.8Z"/>
  <path class="st5" d="M40.3,52c.1-.3.3-.6.4-.8-.1.3-.3.6-.4.8Z"/>
  <ellipse class="st1" cx="42.2" cy="50.7" rx="5.6" ry="5.2" transform="translate(-23.1 41.2) rotate(-41.9)"/>
  <path class="st4" d="M39,48.2c1.1-1.8,3.2-2.7,5.1-2.7,1.9,0,4,.9,5.1,2.7,1.4,2.4,2,6,.2,9.2-.8,1.4-3,2.2-5.3,2.2-2.2,0-4.5-.7-5.3-2.2-1.8-3.2-1.2-6.8.2-9.2Z"/>
  <ellipse class="st1" cx="43.1" cy="37.1" rx="5.6" ry="5.2" transform="translate(-13.6 32.7) rotate(-36.3)"/>
  <path class="st4" d="M49.3,39.9c-.6,1.1-4.2,5.2-7.1,5-3.3-.3-5.4-3.3-4.8-6,.7-3.7,4.1-6.2,6.7-6.8,4.4-1,7.3,3.8,5.2,7.8Z"/>
  <ellipse class="st1" cx="24.5" cy="50.5" rx="5.2" ry="5.6" transform="translate(-31.6 48.7) rotate(-62.3)"/>
  <path class="st4" d="M27.7,48.2c-1.1-1.8-3.2-2.7-5.1-2.7-1.9,0-4,.9-5.1,2.7-1.4,2.4-2,6-.2,9.2.8,1.4,3,2.2,5.3,2.2,2.2,0,4.5-.7,5.3-2.2,1.8-3.2,1.2-6.8-.2-9.2Z"/>
  <ellipse class="st1" cx="22" cy="37.5" rx="5.2" ry="5.6" transform="translate(-21.5 39.5) rotate(-62.3)"/>
  <path class="st4" d="M15.6,39.8c.6,1.2,4.1,5.3,7,5.1,3.3-.2,5.4-3.2,5-5.9-.7-3.7-4-6.3-6.6-7-4.4-1.1-7.4,3.6-5.3,7.7Z"/>
  <g>
    <path class="st4" d="M48.6,13.7l-4.8-5.9c-1.3-1.3-4.8-4-10.9-4s-9.6,2.7-10.9,4l-4.8,5.9c2.1,2,0,5.7,0,9.2,0,8.8,10.7,10.9,15.7,10.9s15.7-2.1,15.7-10.9-2-7.2,0-9.2Z"/>
    <path class="st4" d="M24.4,9c0-3.3-2.6-6-5.8-6s-5.8,2.7-5.8,6,2.6,6,5.8,6,5.8-2.7,5.8-6Z"/>
    <path class="st4" d="M41.4,9c0-3.3,2.6-6,5.8-6s5.8,2.7,5.8,6-2.6,6-5.8,6-5.8-2.7-5.8-6Z"/>
  </g>
  <g class="st3">
    <path class="st2" d="M36.2,23c0,1.9-1.5,3.4-3.4,3.4s-3.4-1.5-3.4-3.4,1.5-1.4,3.4-1.4,3.4-.5,3.4,1.4Z"/>
  </g>
  <path class="st1" d="M22,14.9s1.8-3.2,4.2-4.7c2.3-1.5,5.3-2.4,5.3-2.4,0,0-4-.3-6.4,1.8-2.4,2.1-3.1,5.3-3.1,5.3Z"/>
  <g>
    <path class="st0" d="M24.8,52.5c-.1-.3-.3-.6-.4-.8.1.3.3.6.4.8Z"/>
    <path class="st4" d="M39.7,52.5c.1-.3.3-.6.4-.8-.1.3-.3.6-.4.8Z"/>
  </g>
  <path class="st1" d="M19.9,33.4c-1.1,0-2.2.2-2.6,1.4,0,.3-.1.6,0,.8.2.2.6,0,.8,0,1-.4,2.1-.4,3.1-.1.2,0,.4.1.7.2s.5,0,.6-.2c.2-.3-.8-2-2.8-2Z"/>
  <path class="st1" d="M43.3,33.8c.6-.3,1.2-.4,1.8-.3.3,0,1.4.4.9.9s-.4.2-.6.2c-1,.2-2.1.6-3,1.2-.4.2-.8.4-1.2.4,0,0-.1,0-.1,0,0,0,0-.2,0-.2.4-.8,1.2-1.6,2.1-2.1Z"/>
  <path class="st1" d="M22.1,46.8c-.2,0-.5,0-.7.2-1.3.3-2.6,1.2-3,2.5,0,.2,0,.3,0,.5,0,0,0,.1,0,.1,0,0,0,0,.1,0,.3.1.6,0,.9,0s.5-.3.8-.5c.8-.5,1.8-.7,2.7-.9.5,0,1-.2,1.3-.6.4-.6-.3-1.1-.8-1.3s-.8-.2-1.2,0Z"/>
  <path class="st1" d="M43.6,47.1c-1-.1-2.2.2-2.8.9-.3.3-.4.8-.3,1.3,1.1,0,2.1-.3,3.1-.7.4-.2.8-.5,1-.9,0,0,0-.1,0-.2,0,0,0-.1-.1-.1-.2-.1-.5-.2-.8-.3Z"/>
</svg>