<?xml version="1.0" encoding="UTF-8"?>
<svg id="Layer_1" xmlns="http://www.w3.org/2000/svg" version="1.1" viewBox="0 0 64 64">
  <!-- Generator: Adobe Illustrator 29.2.1, SVG Export Plug-In . SVG Version: 2.1.0 Build 116)  -->
  <defs>
    <style>
      .st0 {
        fill: #c13017;
      }

      .st1 {
        fill: #e84b36;
      }
    </style>
  </defs>
  <path class="st1" d="M31.6,53.1h0c-9.3-.2-17.8-6.1-22-15.1-1-2.2-2.4-4.2-4.2-5.9h0c-1.3-1.5-1.1-3.6.3-4.8,1.6-1.4,3.1-3,4.2-4.8,4.6-7.3,12.2-11.7,20.5-11.5h2.5c8.5.2,16.4,5.2,20.9,13,1.5,2.5,3.3,4.8,5.6,6.5h.2c0,.1-2.3,2.7-2.3,2.7-1.3,1.5-2.4,3.1-3.3,5-4.2,9.3-12.8,15.2-22.3,15Z"/>
  <polygon class="st0" points="13.2 23.9 16.3 20.2 18.8 20.3 24.1 15.8 30 14.4 37.5 15.8 41 18.7 42.5 20.2 38.6 18.6 34.4 17.7 29.3 17.2 24.9 17.4 19.6 21.9 16.9 21.9 14.3 25.2 9.9 25.5 13.2 23.9"/>
  <polygon class="st0" points="27.9 21.1 33.9 21.8 41.5 23.5 46 22.8 53.2 28.6 55.3 30.3 50.6 28.7 45.4 25.1 40.3 25.7 34 23.9 27.6 22.5 21.9 25 27.9 21.1"/>
  <polygon class="st0" points="50.3 36 44.1 41.8 38.5 44.8 34.4 43.1 30.2 43.8 21.8 41.9 18.7 40 13.7 34.2 9.1 32.7 12.1 36 17.3 43.6 21.8 44.5 26.1 48 31.3 49.4 33.8 47.7 37.5 48.2 42.4 45.4 44.9 44.5 50.3 36"/>
  <polygon class="st0" points="47.4 37.3 38.3 40.7 32.7 41.2 28.4 39.3 25.5 40.5 21.5 37.8 17.4 35.8 26.7 35.5 30.3 37 32.7 36 34.8 37.1 40.5 36.2 47.4 37.3"/>
  <polygon class="st0" points="30.7 30 29.8 27.5 33.5 28.8 32.4 31.4 30.7 30"/>
  <polygon class="st0" points="35.1 33.5 35.1 30.5 36.8 32.7 35.1 33.5"/>
  <polygon class="st0" points="20.7 31.6 17.7 31.6 19.9 30 20.7 31.6"/>
  <polygon class="st0" points="20.2 25.3 22.4 22.6 18.8 24.3 20.2 25.3"/>
  <polygon class="st0" points="45.5 27.8 49.1 29.8 43.6 30.2 45.5 27.8"/>
  <polygon class="st0" points="9.9 29.5 14.5 29.2 16.7 31.7 9.9 29.5"/>
</svg>