<?xml version="1.0" encoding="UTF-8"?>
<svg id="Layer_1" xmlns="http://www.w3.org/2000/svg" version="1.1" viewBox="0 0 64 64">
  <!-- Generator: Adobe Illustrator 29.2.1, SVG Export Plug-In . SVG Version: 2.1.0 Build 116)  -->
  <defs>
    <style>
      .st0 {
        fill: #fff;
      }

      .st1 {
        fill: #d37800;
      }

      .st2 {
        fill: #20492e;
      }
    </style>
  </defs>
  <path class="st1" d="M35,8.6c-.2,0-.5,0-.6.1-.3.1-.6.3-.7.5-.4.4-.6.8-.9,1.2-.2.3-.4.6-.6.8-.2-.2-.4-.5-.6-.8-.3-.4-.5-.8-.9-1.2-.2-.2-.4-.4-.8-.5-.3-.1-.9-.2-1.3,0-3.4,1.6-5.9,5.4-6.6,10-1.9-.6-3.7-.8-5.5-.8h0c-2.2,0-4.2.6-5.8,1.6-.4.2-.6.7-.7,1.1s0,.6,0,.9c.2.5.4.9.6,1.3.2.3.3.6.5.9-.3,0-.6,0-1,0-.5,0-1,0-1.5.1-.3,0-.5.1-.9.3-.3.2-.6.7-.6,1.1-.3,4.2,2.6,8.7,7.5,11.8-.2.4-.5.7-.7,1.1-3.1,5.2-3.5,11-.9,14.7.3.4.7.6,1.1.6.4,0,.7,0,.9,0,.5-.2,1-.4,1.4-.6.4-.2.7-.3.9-.4,0,.3,0,.6,0,1,0,.5,0,.9.1,1.4,0,.3.1.5.4.8.2.3.7.6,1.1.6,2.4.2,5.1-.9,7.6-2.5,2-1.3,4-3.1,5.5-5.1,3.1,4.9,8,8,12.6,7.7.5,0,.9-.3,1.1-.6.2-.3.3-.6.4-.8.1-.5.1-1,.1-1.4,0-.4,0-.7,0-1,.3.1.6.3.9.4.4.2.9.5,1.4.6.3,0,.5.1.9,0,.4,0,.9-.3,1.1-.6,2.6-3.7,2.2-9.5-.9-14.7-.2-.3-.4-.6-.6-.9,5-3,8-7.6,7.7-11.9,0-.4-.3-.9-.6-1.1-.3-.2-.6-.3-.8-.3-.5-.1-1-.1-1.5-.1-.4,0-.7,0-1,0,.1-.2.3-.5.5-.9.2-.4.5-.8.6-1.3,0-.2.2-.5.1-.9,0-.4-.3-.8-.7-1.1-1.6-1-3.6-1.6-5.8-1.6h0c-1.7,0-3.6.2-5.5.8-.7-4.7-3.2-8.4-6.7-10-.2,0-.4-.1-.7-.1h0Z"/>
  <polygon class="st0" points="26 22 28.4 17.5 32.5 15.7 27.8 15.7 26 18.8 26 22"/>
  <polygon class="st0" points="21.6 24 24.6 24 23.1 27.2 21.6 24"/>
  <polygon class="st2" points="34 25.7 39 21.7 41 25.7 37.5 28.4 34 25.7"/>
  <polygon class="st2" points="22.1 40.4 22.1 36.5 28.6 39.2 22.1 40.4"/>
  <polygon class="st2" points="37.9 40.3 42 40.3 39.2 46.5 37.9 40.3"/>
  <polygon class="st0" points="47.8 48.3 49.2 44.7 46.4 40.5 47.8 48.3"/>
</svg>