<?xml version="1.0" encoding="UTF-8"?>
<svg id="Layer_1" xmlns="http://www.w3.org/2000/svg" version="1.1" viewBox="0 0 64 64">
  <!-- Generator: Adobe Illustrator 29.2.1, SVG Export Plug-In . SVG Version: 2.1.0 Build 116)  -->
  <defs>
    <style>
      .st0 {
        opacity: .2;
      }

      .st0, .st1 {
        fill: #fff;
      }

      .st1 {
        opacity: .5;
      }

      .st2 {
        fill: #ff593b;
      }

      .st3 {
        fill: #ff0907;
      }

      .st4 {
        fill: #ee522b;
      }
    </style>
  </defs>
  <path class="st4" d="M43.1,24.4s-7.5.4-12.1.5c-4.5,0-12.1-.5-12.1-.5-1.4,3.2-3.7,18.3-3.7,23.3s5.7,11.9,15.8,11.9,15.8-6.9,15.8-11.9-2.3-20.1-3.7-23.3Z"/>
  <path class="st3" d="M23.5,52.4c-.1-.3-.3-.6-.4-.8.1.3.3.6.4.8Z"/>
  <path class="st3" d="M38.5,52.4c.1-.3.3-.6.4-.8-.1.3-.3.6-.4.8Z"/>
  <ellipse class="st1" cx="40.4" cy="51.1" rx="5.6" ry="5.2" transform="translate(-23.8 40.1) rotate(-41.9)"/>
  <path class="st4" d="M37.1,48.6c1.1-1.8,3.2-2.7,5.1-2.8,1.9,0,4,.9,5.1,2.8,1.4,2.4,2,6,.2,9.2-.8,1.4-3,2.3-5.3,2.2-2.2,0-4.5-.7-5.3-2.2-1.8-3.2-1.2-6.8.2-9.2Z"/>
  <ellipse class="st1" cx="41.2" cy="37.4" rx="5.6" ry="5.2" transform="translate(-14.1 31.7) rotate(-36.3)"/>
  <path class="st4" d="M47.5,40.2c-.6,1.2-4.2,5.2-7.1,5-3.3-.3-5.4-3.3-4.9-6,.7-3.7,4.2-6.2,6.8-6.8,4.4-1,7.4,3.8,5.2,7.9Z"/>
  <ellipse class="st1" cx="22.6" cy="50.9" rx="5.2" ry="5.6" transform="translate(-33 47.2) rotate(-62.3)"/>
  <path class="st4" d="M25.8,48.6c-1.1-1.8-3.2-2.7-5.1-2.8-1.9,0-4,.9-5.1,2.8-1.4,2.4-2,6-.2,9.2.8,1.4,3,2.3,5.3,2.2,2.2,0,4.5-.7,5.3-2.2,1.8-3.2,1.2-6.8-.2-9.2Z"/>
  <ellipse class="st1" cx="20.1" cy="37.8" rx="5.2" ry="5.6" transform="translate(-22.7 38) rotate(-62.3)"/>
  <path class="st2" d="M13.7,40.1c.6,1.2,4.1,5.3,7,5.1,3.3-.2,5.5-3.2,5-5.9-.7-3.7-4-6.3-6.6-7-4.4-1.1-7.4,3.7-5.3,7.7Z"/>
  <g>
    <path class="st4" d="M46.8,13.9l-4.9-5.9c-1.3-1.3-4.9-4-10.9-4s-9.7,2.7-10.9,4l-4.9,5.9c2.1,2,0,5.8,0,9.2,0,8.8,10.7,10.9,15.8,10.9s15.8-2.1,15.8-10.9-2.1-7.2,0-9.2Z"/>
    <path class="st4" d="M22.8,9.6c0-3.1-2.5-5.6-5.6-5.6s-5.6,2.5-5.6,5.6,2.5,5.6,5.6,5.6,5.6-2.5,5.6-5.6Z"/>
    <path class="st4" d="M39.2,9.6c0-3.1,2.5-5.6,5.6-5.6s5.6,2.5,5.6,5.6-2.5,5.6-5.6,5.6-5.6-2.5-5.6-5.6Z"/>
  </g>
  <path class="st1" d="M34.4,23.2c0,1.9-1.5,3.4-3.4,3.4s-3.4-1.5-3.4-3.4,1.5-1.4,3.4-1.4,3.4-.5,3.4,1.4Z"/>
  <path class="st1" d="M20.1,15.2s1.9-3.2,4.2-4.7c2.3-1.5,5.3-2.4,5.3-2.4,0,0-4-.3-6.5,1.8-2.4,2.1-3.1,5.3-3.1,5.3Z"/>
  <g>
    <path class="st0" d="M22.9,52.9c-.1-.3-.3-.6-.4-.8.1.3.3.6.4.8Z"/>
    <path class="st2" d="M37.9,52.9c.1-.3.3-.6.4-.8-.1.3-.3.6-.4.8Z"/>
  </g>
  <path class="st4" d="M18,33.7c-1.1,0-2.2.2-2.6,1.4,0,.3-.1.6,0,.8.2.2.6,0,.8,0,1-.4,2.1-.4,3.1-.1.2,0,.5.1.7.2s.5,0,.7-.2c.2-.3-.8-2-2.8-2Z"/>
  <path class="st1" d="M41.4,34.1c.6-.3,1.2-.4,1.8-.3.3,0,1.4.4.9.9s-.4.2-.6.2c-1.1.2-2.1.6-3,1.2-.4.2-.8.4-1.2.4,0,0-.1,0-.1,0,0,0,0-.2,0-.2.4-.8,1.2-1.6,2.1-2.1Z"/>
  <path class="st1" d="M20.2,47.1c-.2,0-.5,0-.7.2-1.3.3-2.6,1.2-3,2.5,0,.2,0,.3,0,.5,0,0,0,.1,0,.1,0,0,0,0,.1,0,.3.1.6,0,.9,0s.5-.3.8-.5c.8-.5,1.8-.7,2.7-.9.5,0,1-.2,1.3-.6.4-.6-.3-1.1-.8-1.3s-.8-.2-1.2,0Z"/>
  <path class="st1" d="M41.8,47.4c-1-.1-2.2.2-2.8.9-.3.3-.4.8-.3,1.3,1.1,0,2.1-.3,3.1-.7.4-.2.8-.5,1-.9,0,0,0-.1,0-.2,0,0,0-.1-.1-.1-.2-.1-.5-.2-.8-.3Z"/>
</svg>