<?xml version="1.0" encoding="UTF-8"?>
<svg id="Layer_1" xmlns="http://www.w3.org/2000/svg" version="1.1" viewBox="0 0 86 64">
  <!-- Generator: Adobe Illustrator 29.0.1, SVG Export Plug-In . SVG Version: 2.1.0 Build 192)  -->
  <defs>
    <style>
      .st0 {
        fill: #008261;
      }

      .st1 {
        isolation: isolate;
      }

      .st2 {
        fill: #fff;
      }
    </style>
  </defs>
  <path class="st0" d="M31.7,17h54.3v30.1H31.7c-3.3,0-6-2.7-6-6v-18.1c0-3.3,2.7-6,6-6Z" transform="translate(111.7 64) rotate(-180)"/>
  <path class="st0" d="M25.9,7.6L3.1,25.7c-4.1,3.2-4.1,9.4,0,12.7l22.8,18.1c3.3,2.6,8.2.3,8.2-4V11.6c0-4.2-4.9-6.6-8.2-4Z"/>
  <g id="about_MH" class="st1">
    <g class="st1">
      <path class="st2" d="M37,34.1v1c0,.3,0,.6,0,1,0,0-1.5,0-3.9,0,0,0,0-.7,0-1v-6.3c0-.3,0-.7,0-1h0c0,0,3.6,0,3.6,0,0,0,.2,0,.3,0,3.7,0,4.5,1.4,4.5,3.2s-.8,3.2-4.5,3.2c0,0,0,0,0,0ZM38.1,31c0-.5,0-1-1.1-1v1.9c1,0,1.1-.5,1.1-1Z"/>
      <path class="st2" d="M52,36.3c-2.1,0-3.9,0-3.9,0-.1-.3-.3-.6-.4-.8l-.9-1.3v1c0,.3,0,.6,0,1,0,0-1.5,0-3.9,0,0,0,0-.7,0-1v-6.3c0-.3,0-.7,0-1h0c0,0,3.6,0,3.6,0,0,0,.2,0,.3,0,3.7,0,4.5,1.4,4.5,3.2s-.3,1.9-1.2,2.5l1.9,2.8ZM47.9,31c0-.5,0-1-1.1-1v1.9c1,0,1.1-.5,1.1-1Z"/>
      <path class="st2" d="M53.3,36.2h0c0-.4,0-.7,0-1.1v-6.2c0-.4,0-.7,0-1.1,0,0,3,.1,7,0-.1,1.3,0,2.3,0,2.3-1.4-.2-3.2-.2-3.2-.2v1h2.7s-.1,1.1,0,2.2h-2.7v.9s2.1,0,3.2-.2c-.1,1.4,0,2.4,0,2.4,0,0-3.6,0-7,0Z"/>
      <path class="st2" d="M70.5,27.8c0,.2-.1.4-.2.6-.5,1.5-1.7,4.6-2.4,7.2,0,.2-.1.3-.1.5h-3.5c0-.2,0-.4,0-.5-.8-2.7-1.9-5.8-2.3-7.3,0-.2-.2-.4-.2-.6h3.8c0,.1,0,.3,0,.6.1.6.4,1.6.6,2.4.2-.8.4-1.6.6-2.2,0-.2,0-.4,0-.6h3.8Z"/>
    </g>
  </g>
</svg>