<?xml version="1.0" encoding="UTF-8"?>
<svg id="Layer_1" xmlns="http://www.w3.org/2000/svg" version="1.1" viewBox="0 0 180 64">
  <!-- Generator: Adobe Illustrator 29.1.0, SVG Export Plug-In . SVG Version: 2.1.0 Build 142)  -->
  <defs>
    <style>
      .st0 {
        fill: #008261;
      }

      .st1 {
        isolation: isolate;
      }

      .st2 {
        fill: #fff;
      }
    </style>
  </defs>
  <path class="st0" d="M174,7.1H6c-3.3,0-6,3.6-6,8v34c0,4.4,2.7,8,6,8h168c3.3,0,6-3.6,6-8V15.1c0-4.4-2.7-8-6-8Z"/>
  <g id="about_MH">
    <g class="st1">
      <path class="st2" d="M37,30.9c0,0-.3-.3-.4-.4-.1-.1-.2-.2-.4-.4-.6-.5-1.4-.9-2.2-.9-.4,0-1.4-.1-1.4.5,0,.2.2.4.4.6.4.2.8.3,1.2.4,1,.3,1.9.7,2.5,1.3.7.6,1,1.4,1.1,2.1,0,2.1-2.6,3.8-5.8,3.8s-3-.3-3.8-.4c.4-2.4,0-4,0-4,.7.7,2.3,1.2,3.4,1.2.5,0,1-.2,1-.6h0c0-.5-1-.7-1.7-.9-1-.3-1.9-.7-2.5-1.3-.7-.6-1-1.7-1.1-2.4,0,0,0,0,0,0,0-2.1,2.6-3.2,5.8-3.2s2.8.3,3.6.6c-.2,1.8,0,3.9,0,3.9Z"/>
      <path class="st2" d="M46.6,31.3v4.9c0,.5,0,1,.1,1.5h-5.2c0-.5.1-1,.1-1.5v-4.8c-1.8,0-2.5.1-2.5.1.1-2.6,0-5.1,0-5.1,0,0,5,0,10,0-.1,2.8,0,5.1,0,5.1-.8,0-2.5-.1-2.5-.1Z"/>
      <path class="st2" d="M49.6,38v-.2c.2-.4.5-1,.6-1.4l2.4-8.6c.1-.5.3-1.4.3-1.4,3.5.1,8.2,0,8.2,0,0,.5.2,1,.3,1.4l2.4,8.5c.1.4.3.8.4,1.2h0c-2.8,0-4.8.1-4.8.1-.1-.5-.3-1-.4-1.5v-.4h-4v.4c-.3.5-.6,1.3-.7,1.8-2.4-.1-4.9,0-4.9,0ZM56.1,33h1.9l-.9-2.6-.9,2.6Z"/>
      <path class="st2" d="M78.4,37.8c-2.8,0-5.2,0-5.2,0-.1-.4-.3-.8-.6-1.1l-1.2-1.7v1.4c0,.4,0,.9.1,1.3,0,0-2.1,0-5.3,0,0,0,0-.9,0-1.4v-8.4c0-.4,0-.9,0-1.3h0c0,0,4.8,0,4.8,0,.1,0,.3,0,.4,0,5.1,0,6.1,1.9,6.1,4.3s-.4,2.6-1.7,3.4l2.6,3.8ZM72.8,30.7c0-.6,0-1.3-1.5-1.3v2.6c1.4,0,1.5-.7,1.5-1.3Z"/>
      <path class="st2" d="M87.1,31.3v4.9c0,.5,0,1,.1,1.5h-5.2c0-.5.1-1,.1-1.5v-4.8c-1.8,0-2.5.1-2.5.1.1-2.6,0-5.1,0-5.1,0,0,5,0,10,0-.1,2.8,0,5.1,0,5.1-.8,0-2.5-.1-2.5-.1Z"/>
      <path class="st2" d="M108.8,31.3c-.1.5-.2,1.1-.2,1.6v3.7c-.7.7-2.4,1.2-4.7,1.2-4.4,0-6.6-2.6-6.6-5.8s2.2-5.8,6.6-5.8,2.4.2,3.2.5v3.6c-.5-.4-1.3-.6-2.1-.6-1.6,0-2.9.5-2.9,2.6s.6,1.5,1.5,1.8h0c0-1-.1-1.9-.3-2.8h5.5Z"/>
      <path class="st2" d="M110.2,38v-.2c.2-.4.5-1,.6-1.4l2.4-8.6c.1-.5.3-1.4.3-1.4,3.5.1,8.2,0,8.2,0,0,.5.2,1,.3,1.4l2.4,8.5c.1.4.3.8.4,1.2h0c-2.8,0-4.8.1-4.8.1-.1-.5-.3-1-.4-1.5v-.4h-4v.4c-.3.5-.6,1.3-.7,1.8-2.4-.1-4.9,0-4.9,0ZM116.7,33h1.9l-.9-2.6-.9,2.6Z"/>
      <path class="st2" d="M140.7,26.4s0,1,0,1.5v8.2c0,.5,0,1,0,1.6,0,0-3.3,0-5.2,0,0,0,.1-1,.1-1.5v-3.3l-.3.7-1.7,4.1-1.7-4.1-.3-.6v3.3c0,.5,0,1,0,1.4-2.1,0-5.2,0-5.2,0h0c0-.6.1-1.1.1-1.5v-8.3c0-.5,0-1-.1-1.5,0,0,2.4,0,5.9,0,0,0,.2.8.4,1.2l.8,1.9.8-1.9c.2-.4.4-1.2.4-1.2,0,0,3.3,0,5.9,0Z"/>
      <path class="st2" d="M143,37.7h0c0-.5,0-1,0-1.5v-8.4c0-.5,0-1-.1-1.4,0,0,4,.1,9.4,0-.2,1.7,0,3.1,0,3.1-1.9-.3-4.4-.2-4.4-.2v1.3h3.6s-.2,1.5,0,3h-3.6v1.2s2.9,0,4.4-.2c-.2,1.8,0,3.2,0,3.2,0,0-4.8,0-9.4,0Z"/>
    </g>
  </g>
</svg>