<?xml version="1.0" encoding="UTF-8"?>
<svg id="Layer_1" xmlns="http://www.w3.org/2000/svg" version="1.1" viewBox="0 0 64 64">
  <!-- Generator: Adobe Illustrator 29.2.1, SVG Export Plug-In . SVG Version: 2.1.0 Build 116)  -->
  <defs>
    <style>
      .st0 {
        fill: none;
      }

      .st1 {
        fill: #fff;
      }

      .st2 {
        fill: #008884;
      }
    </style>
  </defs>
  <circle class="st2" cx="32" cy="-51.6" r="23"/>
  <path class="st1" d="M31.8-64.9l-8.2,7.7h-6.5c-.6-.1-1,.3-1,.9v9.3c0,.6.5,1,1,1h6.5c0,0,8.2,7.6,8.2,7.6.3.3.9,0,.9-.4v-25.7c0-.4-.5-.6-.9-.4Z"/>
  <g>
    <path class="st1" d="M46.7-45.9c-.3,0-.5,0-.7-.3l-9.3-9.3c-.4-.4-.4-1,0-1.4s1-.4,1.4,0l9.3,9.3c.4.4.4,1,0,1.4s-.5.3-.7.3Z"/>
    <path class="st1" d="M37.4-45.9c-.3,0-.5,0-.7-.3-.4-.4-.4-1,0-1.4l9.3-9.3c.4-.4,1-.4,1.4,0s.4,1,0,1.4l-9.3,9.3c-.2.2-.5.3-.7.3Z"/>
  </g>
  <circle class="st2" cx="32" cy="32" r="23"/>
  <g>
    <circle class="st0" cx="35" cy="32" r="12.3"/>
    <circle class="st0" cx="35" cy="32" r="8"/>
    <circle class="st0" cx="35" cy="32" r="3.6"/>
  </g>
  <g>
    <path class="st1" d="M23.8,36.6l-4.6.2c-.5,0-.9-.4-.9-.9-.2-2.8-.3-5.5,0-8.1,0-.5.4-.9.9-.9l4.6.2v9.4Z"/>
    <path class="st1" d="M31,20.4c-3.6,2.8-6.3,5.3-8.2,7.6l-.2.2h0v7.3h0s.2.2.2.2c3,2.8,5.4,5.6,8.2,7.6.3.2.8,0,.8-.3.4-7.7.4-15.2,0-22.4,0-.4-.5-.6-.8-.3Z"/>
  </g>
  <path class="st1" d="M89.9,26.7c2.5-1.9,4.9-3.9,7.5-5.6,0,0,1.6,2.6,1.6,2.6-2.7,1.7-5.5,3-8.3,4.4,0,0-.9-1.4-.9-1.4h0Z"/>
  <path class="st1" d="M90.7,35.9c2.8,1.4,5.7,2.7,8.3,4.5,0,0-1.5,2.5-1.5,2.5-2.7-1.5-5.1-3.6-7.6-5.5,0,0,.9-1.4.9-1.4h0Z"/>
  <path class="st1" d="M35.4,36.5c4.4-3.1,8-7,11.4-11.1,0,0,2.4,2.4,2.4,2.4-2,1.8-4.1,3.4-5.9,5.3-1.8,1.9-3.6,3.9-5.2,6.1l-2.7-2.7h0Z"/>
  <g>
    <circle class="st2" cx="-45.4" cy="32" r="23"/>
    <g>
      <circle class="st0" cx="-42.4" cy="32" r="12.3"/>
      <circle class="st0" cx="-42.4" cy="32" r="8"/>
      <circle class="st0" cx="-42.4" cy="32" r="3.6"/>
    </g>
    <path class="st2" d="M-41.7,51.9V11.1s-22.7-3.6-25.4,16.2c-4.1,29.7,25.4,24.6,25.4,24.6Z"/>
    <g>
      <path class="st1" d="M-53.6,36.6l-4.6.2c-.5,0-.9-.4-.9-.9-.2-2.8-.3-5.5,0-8.1,0-.5.4-.9.9-.9l4.6.2v9.4Z"/>
      <path class="st1" d="M-46.5,20.4c-3.6,2.8-6.3,5.3-8.2,7.6l-.2.2h0v7.3h0s.2.2.2.2c3,2.8,5.4,5.6,8.2,7.6.3.2.8,0,.8-.3.4-7.7.4-15.2,0-22.4,0-.4-.5-.6-.8-.3Z"/>
    </g>
    <g>
      <path class="st1" d="M-42.4,26.7c2.5-1.9,4.9-3.9,7.5-5.6,0,0,1.6,2.6,1.6,2.6-2.7,1.7-5.5,3-8.3,4.4,0,0-.9-1.4-.9-1.4h0Z"/>
      <path class="st1" d="M-41.5,35.9c2.8,1.4,5.7,2.7,8.3,4.5,0,0-1.5,2.5-1.5,2.5-2.7-1.5-5.1-3.6-7.6-5.5,0,0,.9-1.4.9-1.4h0Z"/>
      <path class="st1" d="M-40.2,31.2c2.8-.3,6.8-.7,9.6-.9,0,0,0,3.4,0,3.4-2.8-.2-6.8-.6-9.6-.9,0,0,0-1.7,0-1.7h0Z"/>
    </g>
  </g>
  <path class="st1" d="M46.8,39.1c-1.6-2.1-3.4-4.1-5.3-6-1.9-1.8-4.1-3.4-6-5.3,0,0,2.4-2.4,2.4-2.4,1.9,1.9,3.5,4,5.3,6,1.9,1.8,3.9,3.6,6,5.3,0,0-2.4,2.4-2.4,2.4h0Z"/>
  <circle class="st2" cx="-113.9" cy="32" r="23"/>
  <g>
    <circle class="st0" cx="-110.9" cy="32" r="12.3"/>
    <circle class="st0" cx="-110.9" cy="32" r="8"/>
    <circle class="st0" cx="-110.9" cy="32" r="3.6"/>
  </g>
  <path class="st2" d="M-110.2,51.9V11.1s-22.7-3.6-25.4,16.2c-4.1,29.7,25.4,24.6,25.4,24.6Z"/>
  <g>
    <path class="st1" d="M-122.1,36.6l-4.6.2c-.5,0-.9-.4-.9-.9-.2-2.8-.3-5.5,0-8.1,0-.5.4-.9.9-.9l4.6.2v9.4Z"/>
    <path class="st1" d="M-114.9,20.4c-3.6,2.8-6.3,5.3-8.2,7.6l-.2.2h0v7.3h0s.2.2.2.2c3,2.8,5.4,5.6,8.2,7.6.3.2.8,0,.8-.3.4-7.7.4-15.2,0-22.4,0-.4-.5-.6-.8-.3Z"/>
  </g>
  <path class="st1" d="M-110.4,36.5c4.4-3.1,8-7,11.4-11.1,0,0,2.4,2.4,2.4,2.4-2,1.8-4.1,3.4-5.9,5.3-1.8,1.9-3.6,3.9-5.2,6.1l-2.7-2.7h0Z"/>
  <path class="st1" d="M-99,39.1c-1.6-2.1-3.4-4.1-5.3-6-1.9-1.8-4.1-3.4-6-5.3,0,0,2.4-2.4,2.4-2.4,1.9,1.9,3.5,4,5.3,6,1.9,1.8,3.9,3.6,6,5.3,0,0-2.4,2.4-2.4,2.4h0Z"/>
</svg>