<?xml version="1.0" encoding="UTF-8"?>
<svg id="Layer_1" xmlns="http://www.w3.org/2000/svg" version="1.1" viewBox="0 0 64 64">
  <!-- Generator: Adobe Illustrator 29.2.1, SVG Export Plug-In . SVG Version: 2.1.0 Build 116)  -->
  <defs>
    <style>
      .st0, .st1 {
        fill: none;
      }

      .st2 {
        fill: #fff;
      }

      .st3 {
        fill: #008884;
      }

      .st1 {
        stroke: #fff;
        stroke-miterlimit: 10;
        stroke-width: 1.5px;
      }
    </style>
  </defs>
  <circle class="st3" cx="110.1" cy="-22.5" r="23"/>
  <g>
    <circle class="st0" cx="113.1" cy="-22.5" r="12.3"/>
    <circle class="st0" cx="113.1" cy="-22.5" r="8"/>
    <circle class="st0" cx="113.1" cy="-22.5" r="3.6"/>
  </g>
  <path class="st3" d="M113.8-2.6v-40.8s-22.7-3.6-25.4,16.2C84.2,2.6,113.8-2.6,113.8-2.6Z"/>
  <g>
    <path class="st2" d="M96.3-27.4h5.6v9.8h-5.6c-.5,0-.9-.4-.9-.9v-8.1c0-.5.4-.9.9-.9Z"/>
    <path class="st2" d="M109.1-34l-8.2,7.6-.2.2h0v7.3h0s.2.2.2.2l8.2,7.6c.3.2.8,0,.8-.3v-22.4c0-.4-.5-.6-.8-.3Z"/>
  </g>
  <circle class="st3" cx="22.6" cy="-51" r="23"/>
  <g>
    <circle class="st1" cx="25.6" cy="-51" r="12.3"/>
    <circle class="st1" cx="25.6" cy="-51" r="8"/>
    <circle class="st1" cx="25.6" cy="-51" r="3.6"/>
  </g>
  <path class="st3" d="M26.3-31.1v-40.8S3.6-75.6.9-55.7C-3.2-25.9,26.3-31.1,26.3-31.1Z"/>
  <g>
    <path class="st2" d="M22-63.1l-9.2,7.8v8.4l9.6,9c.3.3.9,0,.9-.4v-22.7c0-2.1-.8-2.5-1.3-2.1Z"/>
    <path class="st2" d="M7.8-56.7h6.5v11.3h-6.5c-.6,0-1-.5-1-1v-9.3c0-.6.5-1,1-1Z"/>
    <path class="st2" d="M22-39.1l-9.2-7.8v-8.4l9.6-9c.3-.3.9,0,.9.4v22.7c0,2.1-.8,2.5-1.3,2.1Z"/>
  </g>
  <g>
    <path class="st2" d="M113-28.3c2.6-2,5.1-4,7.8-5.9,0,0,1.7,2.5,1.7,2.5-2.7,1.8-5.6,3.4-8.4,5,0,0-1.1-1.6-1.1-1.6h0Z"/>
    <path class="st2" d="M114.1-18.3c2.8,1.6,5.7,3.2,8.4,5,0,0-1.7,2.5-1.7,2.5-2.7-1.9-5.2-3.9-7.8-5.9,0,0,1.1-1.6,1.1-1.6h0Z"/>
    <path class="st2" d="M115.3-23.4c3.2-.2,6.5-.5,9.7-.6,0,0,0,3.1,0,3.1-3.3,0-6.5-.3-9.7-.6,0,0,0-1.9,0-1.9h0Z"/>
  </g>
  <circle class="st3" cx="176.8" cy="-22.5" r="23"/>
  <g>
    <circle class="st0" cx="179.8" cy="-22.5" r="12.3"/>
    <circle class="st0" cx="179.8" cy="-22.5" r="8"/>
    <circle class="st0" cx="179.8" cy="-22.5" r="3.6"/>
  </g>
  <path class="st3" d="M180.5-2.6v-40.8s-22.7-3.6-25.4,16.2c-4.1,29.7,25.4,24.6,25.4,24.6Z"/>
  <g>
    <path class="st2" d="M168.6-17.8l-4.6.2c-.5,0-.9-.4-.9-.9-.2-2.8-.3-5.5,0-8.1,0-.5.4-.9.9-.9l4.6.2v9.4Z"/>
    <path class="st2" d="M175.8-34c-3.6,2.8-6.3,5.3-8.2,7.6l-.2.2h0v7.3h0s.2.2.2.2c3,2.8,5.4,5.6,8.2,7.6.3.2.8,0,.8-.3.4-7.7.4-15.2,0-22.4,0-.4-.5-.6-.8-.3Z"/>
  </g>
  <g>
    <path class="st2" d="M179.9-27.8c2.5-1.9,4.9-3.9,7.5-5.6,0,0,1.6,2.6,1.6,2.6-2.7,1.7-5.5,3-8.3,4.4,0,0-.9-1.4-.9-1.4h0Z"/>
    <path class="st2" d="M180.7-18.6c2.8,1.4,5.7,2.7,8.3,4.5,0,0-1.5,2.5-1.5,2.5-2.7-1.5-5.1-3.6-7.6-5.5,0,0,.9-1.4.9-1.4h0Z"/>
    <path class="st2" d="M182-23.3c2.8-.3,6.8-.7,9.6-.9,0,0,0,3.4,0,3.4-2.8-.2-6.8-.6-9.6-.9,0,0,0-1.7,0-1.7h0Z"/>
  </g>
  <g>
    <circle class="st3" cx="32" cy="32" r="23"/>
    <g>
      <path class="st2" d="M23.8,36.6l-4.6.2c-.5,0-.9-.4-.9-.9-.2-2.8-.3-5.5,0-8.1,0-.5.4-.9.9-.9l4.6.2v9.4Z"/>
      <path class="st2" d="M31,20.4c-3.6,2.8-6.3,5.3-8.2,7.6l-.2.2h0v7.3h0s.2.2.2.2c3,2.8,5.4,5.6,8.2,7.6.3.2.8,0,.8-.3.4-7.7.4-15.2,0-22.4,0-.4-.5-.6-.8-.3Z"/>
    </g>
    <g>
      <path class="st2" d="M35,26.7c2.5-1.9,4.9-3.9,7.5-5.6,0,0,1.6,2.6,1.6,2.6-2.7,1.7-5.5,3-8.3,4.4,0,0-.9-1.4-.9-1.4h0Z"/>
      <path class="st2" d="M35.9,35.9c2.8,1.4,5.7,2.7,8.3,4.5,0,0-1.5,2.5-1.5,2.5-2.7-1.5-5.1-3.6-7.6-5.5,0,0,.9-1.4.9-1.4h0Z"/>
      <path class="st2" d="M37.2,31.2c2.8-.3,6.8-.7,9.6-.9,0,0,0,3.4,0,3.4-2.8-.2-6.8-.6-9.6-.9,0,0,0-1.7,0-1.7h0Z"/>
    </g>
  </g>
</svg>