<?xml version="1.0" encoding="UTF-8"?>
<svg id="Layer_1" xmlns="http://www.w3.org/2000/svg" version="1.1" viewBox="0 0 86 64">
  <!-- Generator: Adobe Illustrator 29.2.1, SVG Export Plug-In . SVG Version: 2.1.0 Build 116)  -->
  <defs>
    <style>
      .st0 {
        isolation: isolate;
      }

      .st1 {
        fill: #fff;
      }

      .st2 {
        fill: #008884;
      }
    </style>
  </defs>
  <path class="st2" d="M60.1,7.6l22.8,18.1c4.1,3.2,4.1,9.4,0,12.7l-22.8,18.1c-3.3,2.6-8.2.3-8.2-4V11.6c0-4.2,4.9-6.6,8.2-4Z"/>
  <path class="st2" d="M6,17h54.3v30.1H6c-3.3,0-6-2.7-6-6v-18.1c0-3.3,2.7-6,6-6Z"/>
  <g id="about_MH" class="st0">
    <g class="st0">
      <path class="st1" d="M21.8,36.2c-.5-1-1.1-2.2-1.6-3.2v1.9c0,.4,0,.8,0,1.1-1.8,0-3.3,0-3.3,0h0c0-.4,0-.8,0-1.1v-5.9c0-.4,0-1.1,0-1.1,1.5,0,3.2,0,3.2,0,.4.8,1,2,1.7,3.3v-2c0-.5,0-1.4,0-1.4,1.6,0,3.4,0,3.4,0v.2c0,.4,0,.7,0,1.1v6c0,.4,0,.8,0,1.2-1.9,0-3.4,0-3.4,0Z"/>
      <path class="st1" d="M26.9,36.2h0c0-.4,0-.7,0-1.1v-6.2c0-.4,0-.7,0-1.1,0,0,3,.1,7,0-.1,1.3,0,2.3,0,2.3-1.4-.2-3.2-.2-3.2-.2v1h2.6s-.1,1.1,0,2.2h-2.6v.9s2.1,0,3.2-.2c-.1,1.4,0,2.3,0,2.3,0,0-3.6,0-7,0Z"/>
      <path class="st1" d="M35.1,36.2c.3-.4.7-.7,1-1.1l2.3-3-2.4-3.1c-.3-.4-.6-.7-.9-1.1,2.7,0,4.8,0,4.8,0,.2.4.5.7.7,1v.2c.1,0,.3-.2.3-.2.2-.3.5-.7.7-1,0,0,2,0,4.8,0-.3.4-.6.7-.9,1.1l-2.4,3.1,2.5,3.2c.3.4.6.7.9,1.1-2.7,0-4.8,0-4.8,0-.1-.2-.3-.5-.4-.7l-.5-.6h-.1c-.3.5-.5.8-.7,1.2,0,0-2,0-4.8,0Z"/>
      <path class="st1" d="M53,31.5v3.6c0,.4,0,.7,0,1.1h-3.8c0-.4,0-.7,0-1.1v-3.6c-1.4,0-1.8,0-1.8,0,0-1.9,0-3.7,0-3.7,0,0,3.7,0,7.4,0,0,2,0,3.7,0,3.7-.6,0-1.8,0-1.8,0Z"/>
    </g>
  </g>
</svg>