<?xml version="1.0" encoding="UTF-8"?>
<svg id="Layer_1" xmlns="http://www.w3.org/2000/svg" version="1.1" viewBox="0 0 86 64">
  <!-- Generator: Adobe Illustrator 29.2.1, SVG Export Plug-In . SVG Version: 2.1.0 Build 116)  -->
  <defs>
    <style>
      .st0 {
        isolation: isolate;
      }

      .st1 {
        fill: #128884;
      }

      .st2 {
        fill: #fff;
      }
    </style>
  </defs>
  <path class="st1" d="M80,47H25.7v-30.1h54.3c3.3,0,6,2.7,6,6v18.1c0,3.3-2.7,6-6,6Z"/>
  <path class="st1" d="M25.9,7.6L3.1,25.7c-4.1,3.2-4.1,9.4,0,12.7l22.8,18.1c3.3,2.6,8.2.3,8.2-4V11.6c0-4.2-4.9-6.6-8.2-4Z"/>
  <g id="about_MH" class="st0">
    <g class="st0">
      <path class="st2" d="M37,34.1v2h-3.9v-8.3h3.9c3.7,0,4.5,1.4,4.5,3.2s-.8,3.2-4.5,3.2h0ZM38.1,31c0-.5,0-1-1.1-1v1.9c1,0,1.1-.5,1.1-1h0Z"/>
      <path class="st2" d="M52,36.3h-3.9c0-.3-.3-.6-.4-.8l-.9-1.3v2h-3.9v-8.3h3.9c3.7,0,4.5,1.4,4.5,3.2s-.3,1.9-1.2,2.5l1.9,2.8h0ZM47.9,31c0-.5,0-1-1.1-1v1.9c1,0,1.1-.5,1.1-1h0Z"/>
      <path class="st2" d="M53.3,36.2h0v-8.4s3,.1,7,0c0,1.3,0,2.3,0,2.3-1.4-.2-3.2-.2-3.2-.2v1h2.7s0,1.1,0,2.2h-2.7v.9s2.1,0,3.2-.2c0,1.4,0,2.4,0,2.4h-7Z"/>
      <path class="st2" d="M70.5,27.8c0,.2,0,.4-.2.6-.5,1.5-1.7,4.6-2.4,7.2,0,.2,0,.3,0,.5h-3.5v-.5c-.8-2.7-1.9-5.8-2.3-7.3,0-.2-.2-.4-.2-.6h3.8v.6c0,.6.4,1.6.6,2.4.2-.8.4-1.6.6-2.2v-.6h3.8-.1Z"/>
    </g>
  </g>
</svg>