<?xml version="1.0" encoding="UTF-8"?>
<svg id="Layer_1" xmlns="http://www.w3.org/2000/svg" version="1.1" viewBox="0 0 42 42">
  <!-- Generator: Adobe Illustrator 29.2.1, SVG Export Plug-In . SVG Version: 2.1.0 Build 116)  -->
  <defs>
    <style>
      .st0 {
        fill: #008884;
      }
    </style>
  </defs>
  <path class="st0" d="M37.2,16.3h-4.3V5.4c0-2.6-2.1-4.8-4.8-4.8h-14.3c-2.6,0-4.8,2.1-4.8,4.8v10.9h-4.3c-4.3,0-6.4,5.1-3.4,8.2l15.1,15.1c2.5,2.5,6.6,2.5,9,0l15.1-15.1c3-3,.9-8.2-3.4-8.2h.1Z"/>
  <path class="st0" d="M113.8,37.9l-15.1-15.1c-2.5-2.5-6.6-2.5-9,0l-15.1,15.1c-3,3-.9,8.2,3.4,8.2h4.3v10.9c0,2.6,2.1,4.8,4.8,4.8h14.3c2.6,0,4.8-2.1,4.8-4.8v-10.9h4.3c4.3,0,6.4-5.1,3.4-8.2h-.1Z"/>
  <path class="st0" d="M-17.3,23.1l-15.1-15.1c-3-3-8.2-.9-8.2,3.4v4.3h-10.9c-2.6,0-4.8,2.1-4.8,4.8v14.3c0,2.6,2.1,4.8,4.8,4.8h10.9v4.3c0,4.3,5.1,6.4,8.2,3.4l15.1-15.1c2.5-2.5,2.5-6.6,0-9h0Z"/>
  <path class="st0" d="M-95,15.7h-10.9v-4.3c0-4.3-5.1-6.4-8.2-3.4l-15.1,15.1c-2.5,2.5-2.5,6.6,0,9l15.1,15.1c3,3,8.2.9,8.2-3.4v-4.3h10.9c2.6,0,4.8-2.1,4.8-4.8v-14.3c0-2.6-2.1-4.8-4.8-4.8h0Z"/>
</svg>