<?xml version="1.0" encoding="UTF-8"?>
<svg id="Layer_1" xmlns="http://www.w3.org/2000/svg" version="1.1" viewBox="0 0 64 64">
  <!-- Generator: Adobe Illustrator 29.2.1, SVG Export Plug-In . SVG Version: 2.1.0 Build 116)  -->
  <defs>
    <style>
      .st0 {
        fill: #fff;
      }

      .st1 {
        fill: #068061;
      }
    </style>
  </defs>
  <circle class="st1" cx="32" cy="32" r="23"/>
  <path class="st0" d="M31.8,18.7l-8.2,7.7h-6.5c-.6-.1-1,.3-1,.9v9.3c0,.6.5,1,1,1h6.5c0-.1,8.2,7.6,8.2,7.6.3.3.9,0,.9-.4v-25.7c0-.4-.5-.6-.9-.4Z"/>
  <g>
    <path class="st0" d="M46.7,37.7c-.3,0-.5,0-.7-.3l-9.3-9.3c-.4-.4-.4-1,0-1.4s1-.4,1.4,0l9.3,9.3c.4.4.4,1,0,1.4s-.5.3-.7.3Z"/>
    <path class="st0" d="M37.4,37.7c-.3,0-.5,0-.7-.3-.4-.4-.4-1,0-1.4l9.3-9.3c.4-.4,1-.4,1.4,0s.4,1,0,1.4l-9.3,9.3c-.2.2-.5.3-.7.3Z"/>
  </g>
</svg>