<?xml version="1.0" encoding="UTF-8"?>
<svg id="Layer_1" xmlns="http://www.w3.org/2000/svg" xmlns:xlink="http://www.w3.org/1999/xlink" version="1.1" viewBox="0 0 232 128">
  <!-- Generator: Adobe Illustrator 29.2.1, SVG Export Plug-In . SVG Version: 2.1.0 Build 116)  -->
  <defs>
    <style>
      .st0 {
        isolation: isolate;
      }

      .st1 {
        fill: #fff;
      }

      .st2 {
        fill: #008884;
      }
    </style>
  </defs>
  <path class="st2" d="M220,14H12C5.4,14,0,21.2,0,30v68c0,8.8,5.4,16,12,16h208c6.6,0,12-7.2,12-16V30c0-8.8-5.4-16-12-16Z"/>
  <g id="about_MH">
    <g class="st0">
      <path class="st1" d="M68,61.4c-.2-.2-.6-.6-.7-.8-.2-.2-.5-.5-.7-.7-1.2-1.1-2.8-1.7-4.4-1.9-.8,0-2.8-.3-2.8,1,0,.5.5.9.9,1.1.8.4,1.6.6,2.4.9,1.9.7,3.7,1.4,5,2.6,1.3,1.2,2.1,2.8,2.1,4.3,0,4.2-5.2,7.6-11.5,7.6s-6-.6-7.6-.9c.7-4.9,0-8,0-8,1.4,1.4,4.5,2.3,6.9,2.4,1.1,0,2-.4,2-1.1h0c0-1.1-2.1-1.3-3.3-1.7-1.9-.7-3.7-1.4-5-2.6-1.3-1.2-2.1-3.3-2.1-4.9,0,0,0,0,0-.1,0-4.2,5.2-6.3,11.6-6.3s5.5.7,7.2,1.2c-.5,3.6,0,7.9,0,7.9Z"/>
      <path class="st1" d="M99.3,52.4c-.1.9-.2,1.8-.2,2.8v17.7c0,.9,0,1.7.2,2.6v.2s-10.3,0-10.3,0v-.2c.2-.9.2-1.7.2-2.6v-6.2h-5.2v5.5c0,.9,0,1.8.2,2.7h0c0,.1-10.4.1-10.4.1v-.2c.2-.9.2-1.7.2-2.6v-17.1c0-.9,0-1.9-.2-2.8h10.4c-.2.9-.2,1.9-.2,2.8v5.5h5.2v-5.5c0-.9,0-1.9-.2-2.8h10.4Z"/>
      <path class="st1" d="M102.6,75.7l.2-.4c.3-.8.8-2.1,1-2.9l4.9-17.2c.3-.9.6-2.8.6-2.8,7.1.3,16.5,0,16.5,0,.1,1,.3,1.9.6,2.9l4.9,17.1c.2.8.5,1.7.9,2.5v.3c-5.5-.2-9.6,0-9.6,0-.2-1-.5-2-.9-3l-.3-.8h-7.7l-.3.8c-.3,1-.8,2.5-1.1,3.5-4.9-.3-9.7,0-9.7,0ZM115.7,65.7h3.7l-1.9-5.3-1.9,5.3Z"/>
      <path class="st1" d="M160.3,75.4c-5.6-.1-10.5,0-10.5,0-.3-.8-.7-1.6-1.2-2.3l-2.4-3.5v2.8c0,.9,0,1.7.2,2.6,0,0-4.2-.2-10.6,0,0,0,.2-1.9.2-2.8v-16.9c0-.9,0-1.8-.1-2.7v-.2s9.6,0,9.6,0c.3,0,.5,0,.8,0,10.1-.2,12.2,3.8,12.2,8.6s-.7,5.3-3.4,6.8l5.1,7.6ZM149.2,61.1c0-1.2-.1-2.6-2.9-2.6v5.2c2.8,0,2.9-1.3,2.9-2.6Z"/>
      <path class="st1" d="M163.8,75.1h0c.1-1,.2-2,.2-2.9v-16.9c0-1,0-1.9-.2-2.9,0,0,8.1.3,18.9,0-.4,3.4,0,6.3,0,6.3-3.8-.6-8.8-.4-8.8-.4v2.6h7.2s-.3,2.9,0,6h-7.2v2.4s5.7.2,8.8-.5c-.3,3.7,0,6.4,0,6.4,0,0-9.7-.2-18.9,0Z"/>
    </g>
  </g>
</svg>