<?xml version="1.0" encoding="utf-8"?>
<!-- Generator: Adobe Illustrator 28.3.0, SVG Export Plug-In . SVG Version: 6.00 Build 0)  -->
<svg version="1.1" id="Layer_1" xmlns="http://www.w3.org/2000/svg" xmlns:xlink="http://www.w3.org/1999/xlink" x="0px" y="0px"
	 viewBox="0 0 116 64" style="enable-background:new 0 0 116 64;" xml:space="preserve">
<style type="text/css">
	.st0{fill:#008261;}
	.st1{enable-background:new    ;}
	.st2{fill:#FFFFFF;}
</style>
<path class="st0" d="M110,7H6c-3.3,0-6,3.6-6,8v34c0,4.4,2.7,8,6,8h104c3.3,0,6-3.6,6-8V15C116,10.6,113.3,7,110,7z"/>
<g>
	<g class="st1">
		<path class="st2" d="M34,30.7c-0.1-0.1-0.3-0.3-0.4-0.4c-0.1-0.1-0.2-0.2-0.4-0.4c-0.6-0.5-1.4-0.9-2.2-1c-0.4,0-1.4-0.2-1.4,0.5
			c0,0.2,0.2,0.4,0.4,0.6c0.4,0.2,0.8,0.3,1.2,0.4c1,0.3,1.9,0.7,2.5,1.3c0.7,0.6,1,1.4,1.1,2.2c0,2.1-2.6,3.8-5.8,3.8
			c-1.4,0-3-0.3-3.8-0.4c0.4-2.4,0-4,0-4c0.7,0.7,2.3,1.2,3.5,1.2c0.5,0,1-0.2,1-0.6c0,0,0,0,0,0c0-0.5-1-0.6-1.7-0.8
			c-1-0.3-1.9-0.7-2.5-1.3c-0.7-0.6-1-1.7-1.1-2.4c0,0,0,0,0-0.1c0-2.1,2.6-3.2,5.8-3.2c1.9,0,2.8,0.3,3.6,0.6
			C33.8,28.6,34,30.7,34,30.7z"/>
		<path class="st2" d="M49.7,26.2c-0.1,0.5-0.1,0.9-0.1,1.4v8.8c0,0.4,0,0.9,0.1,1.3l0,0.1h-5.2l0-0.1c0.1-0.4,0.1-0.9,0.1-1.3v-3.1
			H42v2.8c0,0.5,0,0.9,0.1,1.3l0,0.1h-5.2l0-0.1C37,37,37,36.6,37,36.1v-8.5c0-0.5,0-0.9-0.1-1.4h5.2C42,26.7,42,27.2,42,27.6v2.7
			h2.6v-2.8c0-0.5,0-0.9-0.1-1.4H49.7z"/>
		<path class="st2" d="M51.3,37.8l0.1-0.2c0.2-0.4,0.4-1,0.5-1.4l2.5-8.6c0.1-0.5,0.3-1.4,0.3-1.4c3.6,0.1,8.3,0,8.3,0
			c0.1,0.5,0.2,1,0.3,1.4l2.4,8.5c0.1,0.4,0.3,0.8,0.4,1.2l0.1,0.1c-2.8-0.1-4.9,0-4.9,0c-0.1-0.5-0.3-1-0.4-1.5l-0.1-0.4h-3.9
			l-0.1,0.4c-0.2,0.5-0.4,1.3-0.5,1.8C53.7,37.7,51.3,37.8,51.3,37.8z M57.9,32.9h1.9l-0.9-2.6L57.9,32.9z"/>
		<path class="st2" d="M80.1,37.7c-2.8-0.1-5.2,0-5.2,0c-0.2-0.4-0.3-0.8-0.6-1.1l-1.2-1.8v1.4c0,0.4,0,0.9,0.1,1.3
			c0,0-2.1-0.1-5.3,0c0,0,0.1-0.9,0.1-1.4v-8.5c0-0.4,0-0.9-0.1-1.3l0-0.1h4.8c0.1,0,0.3,0,0.4,0c5.1-0.1,6.1,1.9,6.1,4.3
			c0,1.4-0.4,2.6-1.7,3.4L80.1,37.7z M74.6,30.5c0-0.6-0.1-1.3-1.5-1.3v2.6C74.5,31.8,74.6,31.2,74.6,30.5z"/>
		<path class="st2" d="M81.9,37.5L81.9,37.5c0.1-0.5,0.1-1,0.1-1.5v-8.4c0-0.5,0-1-0.1-1.5c0,0,4,0.1,9.5,0c-0.2,1.7,0,3.1,0,3.1
			C89.5,29,87,29.1,87,29.1v1.3h3.6c0,0-0.2,1.5,0,3H87v1.2c0,0,2.9,0.1,4.4-0.2c-0.2,1.8,0,3.2,0,3.2S86.5,37.4,81.9,37.5z"/>
	</g>
</g>
</svg>
