<?xml version="1.0" encoding="utf-8"?>
<!-- Generator: Adobe Illustrator 28.3.0, SVG Export Plug-In . SVG Version: 6.00 Build 0)  -->
<svg version="1.1" id="Layer_1" xmlns="http://www.w3.org/2000/svg" xmlns:xlink="http://www.w3.org/1999/xlink" x="0px" y="0px"
	 viewBox="0 0 180 64" style="enable-background:new 0 0 180 64;" xml:space="preserve">
<style type="text/css">
	.st0{fill:#008261;}
	.st1{enable-background:new    ;}
	.st2{fill:#FFFFFF;}
</style>
<path class="st0" d="M174,7.1H6c-3.3,0-6,3.6-6,8v34c0,4.4,2.7,8,6,8h168c3.3,0,6-3.6,6-8v-34C180,10.7,177.3,7.1,174,7.1z"/>
<g>
	<g class="st1">
		<path class="st2" d="M32.9,34.8v1.4c0,0.4,0,0.9,0.1,1.3c0,0-2.1-0.1-5.3,0c0,0,0.1-0.9,0.1-1.4v-8.5c0-0.4,0-0.9-0.1-1.3l0-0.1
			h4.8c0.1,0,0.3,0,0.4,0c5.1-0.1,6.1,1.9,6.1,4.3S38,34.8,32.9,34.8C32.9,34.8,32.9,34.8,32.9,34.8z M34.3,30.6
			c0-0.6-0.1-1.3-1.5-1.3v2.6C34.3,31.9,34.3,31.2,34.3,30.6z"/>
		<path class="st2" d="M50.5,37.6c-4.8-0.1-9.5,0-9.5,0l0,0c0.1-0.5,0.1-0.9,0.1-1.4v-8.5c0-0.5,0-1-0.1-1.4h5.2
			c-0.1,0.5-0.1,1-0.1,1.4v6.9l2.2,0c0.7,0,1.5-0.1,2.2-0.2C50.3,36.1,50.5,37.6,50.5,37.6z"/>
		<path class="st2" d="M52,37.9l0.1-0.2c0.2-0.4,0.4-1,0.5-1.4l2.5-8.6c0.1-0.5,0.3-1.4,0.3-1.4c3.6,0.1,8.3,0,8.3,0
			c0.1,0.5,0.2,1,0.3,1.4l2.4,8.5c0.1,0.4,0.3,0.8,0.4,1.2l0.1,0.1c-2.8-0.1-4.9,0-4.9,0c-0.1-0.5-0.3-1-0.4-1.5l-0.1-0.4h-3.9
			l-0.1,0.4c-0.2,0.5-0.4,1.3-0.5,1.8C54.5,37.8,52,37.9,52,37.9z M58.6,32.9h1.9l-0.9-2.6L58.6,32.9z"/>
		<path class="st2" d="M75.2,27.6c0.3-0.4,0.5-0.9,0.8-1.4h5.3c-0.3,0.5-0.7,1-1,1.5l-3.6,5.8l-0.1,0.1v2.3c0,0.5,0,1,0.1,1.5h-5.1
			c0.1-0.5,0.1-1,0.1-1.6v-2.3l-0.1-0.1l-3.6-5.8c-0.3-0.5-0.6-1-1-1.5h5.3c0.2,0.5,0.5,0.9,0.7,1.4l1.1,1.8L75.2,27.6z"/>
		<path class="st2" d="M88.4,37.9l0.1-0.2c0.2-0.4,0.4-1,0.5-1.4l2.5-8.6c0.1-0.5,0.3-1.4,0.3-1.4c3.6,0.1,8.3,0,8.3,0
			c0.1,0.5,0.2,1,0.3,1.4l2.4,8.5c0.1,0.4,0.3,0.8,0.4,1.2l0.1,0.1c-2.8-0.1-4.9,0-4.9,0c-0.1-0.5-0.3-1-0.4-1.5l-0.1-0.4h-3.9
			l-0.1,0.4c-0.2,0.5-0.4,1.3-0.5,1.8C90.8,37.8,88.4,37.9,88.4,37.9z M94.9,32.9h1.9l-0.9-2.6L94.9,32.9z"/>
		<path class="st2" d="M115.5,31.2c-0.1,0.5-0.2,1.1-0.2,1.6v3.7c-0.7,0.7-2.4,1.2-4.7,1.2c-4.4,0-6.6-2.6-6.6-5.8s2.2-5.8,6.6-5.8
			c1.3,0,2.4,0.2,3.2,0.5v3.6c-0.5-0.4-1.3-0.6-2.1-0.6c-1.6,0-2.9,0.5-2.9,2.6c0,0.8,0.6,1.5,1.6,1.8v-0.1c0-0.9-0.1-1.8-0.3-2.7
			H115.5z"/>
		<path class="st2" d="M116.9,37.9l0.1-0.2c0.2-0.4,0.4-1,0.5-1.4l2.5-8.6c0.1-0.5,0.3-1.4,0.3-1.4c3.6,0.1,8.3,0,8.3,0
			c0.1,0.5,0.2,1,0.3,1.4l2.4,8.5c0.1,0.4,0.3,0.8,0.4,1.2l0.1,0.1c-2.8-0.1-4.9,0-4.9,0c-0.1-0.5-0.3-1-0.4-1.5l-0.1-0.4h-3.9
			l-0.1,0.4c-0.2,0.5-0.4,1.3-0.5,1.8C119.3,37.8,116.9,37.9,116.9,37.9z M123.4,32.9h1.9l-0.9-2.6L123.4,32.9z"/>
		<path class="st2" d="M138.7,36.1c0,0.4,0,0.8,0.1,1.2l0.1,0.3c0,0-3-0.1-5.3,0c0,0,0.1-1,0.1-1.5v-8.3c0-0.5,0-1-0.1-1.4l0,0
			c0,0,3.7,0.1,5.3,0c0,0-0.1,1-0.1,1.5V36.1z"/>
		<path class="st2" d="M147.7,37.6c-0.7-1.4-1.5-3-2.2-4.3v2.6c0,0.5,0,1,0.1,1.6c-2.4,0-4.5,0-4.5,0l0,0c0.1-0.5,0.1-1,0.1-1.5v-8
			c0-0.5-0.1-1.5-0.1-1.5c2.1,0.1,4.4,0,4.4,0c0.6,1.1,1.4,2.7,2.3,4.4v-2.7c0-0.6-0.1-1.9-0.1-1.9c2.1,0.1,4.6,0,4.6,0l0,0.2
			c0,0.5-0.1,1-0.1,1.5v8.1c0,0.6,0,1.1,0.1,1.7C149.6,37.5,147.7,37.6,147.7,37.6z"/>
	</g>
</g>
</svg>
