<?xml version="1.0" encoding="UTF-8"?>
<svg id="Layer_1" xmlns="http://www.w3.org/2000/svg" version="1.1" viewBox="0 0 64 64">
  <!-- Generator: Adobe Illustrator 29.2.1, SVG Export Plug-In . SVG Version: 2.1.0 Build 116)  -->
  <defs>
    <style>
      .st0 {
        fill: #fff;
      }

      .st1 {
        fill: #008884;
      }
    </style>
  </defs>
  <g id="Layer_11" data-name="Layer_1">
    <circle class="st1" cx="32" cy="32" r="23"/>
    <g>
      <path class="st0" d="M39.3,32c0-2.2-1.6-3.9-3.7-4.3v1c0,.3.2.6.4.7,1,.4,1.7,1.4,1.7,2.6s-.7,2.1-1.7,2.6-.4.4-.4.7v1c2.1-.3,3.7-2.1,3.7-4.3Z"/>
      <path class="st0" d="M43.7,32c0-4.3-3.1-7.8-7.1-8.6s-.9.3-.9.7h0c0,.4.3.7.6.7,3.3.6,5.9,3.6,5.9,7.1s-2.5,6.5-5.9,7.1-.6.4-.6.7h0c0,.5.4.8.9.7,4.1-.7,7.1-4.3,7.1-8.6v.2Z"/>
      <path class="st0" d="M35.7,19.8h0c0,.4.3.7.7.7,5.7.7,10.2,5.6,10.2,11.5s-4.5,10.8-10.2,11.5-.7.4-.7.7h0c0,.4.4.8.8.8,6.5-.7,11.6-6.3,11.6-13s-5.1-12.2-11.6-13-.8.3-.8.7h0Z"/>
    </g>
    <path class="st0" d="M31.8,18.7l-8.2,7.7h-6.5c-.6-.1-1,.3-1,.9v9.3c0,.6.5,1,1,1h6.5l8.2,7.6c.3.3.9,0,.9-.4v-25.7c0-.4-.5-.6-.9-.4Z"/>
  </g>
</svg>