<?xml version="1.0" encoding="UTF-8"?>
<svg id="Layer_1" xmlns="http://www.w3.org/2000/svg" xmlns:xlink="http://www.w3.org/1999/xlink" version="1.1" viewBox="0 0 180 64">
  <!-- Generator: Adobe Illustrator 29.2.1, SVG Export Plug-In . SVG Version: 2.1.0 Build 116)  -->
  <defs>
    <style>
      .st0 {
        isolation: isolate;
      }

      .st1 {
        fill: #fff;
      }

      .st2 {
        fill: #008884;
      }
    </style>
  </defs>
  <path class="st2" d="M174,7.1H6C2.7,7.1,0,10.7,0,15.1v34c0,4.4,2.7,8,6,8h168c3.3,0,6-3.6,6-8V15.1c0-4.4-2.7-8-6-8Z"/>
  <g class="st0">
    <path class="st1" d="M32.9,34.8v1.4c0,.4,0,.9,0,1.3,0,0-2.1,0-5.3,0,0,0,.1-.9.1-1.4v-8.5c0-.4,0-.9-.1-1.3h0c0-.1,4.8-.1,4.8-.1h.4c5.1-.1,6.1,1.9,6.1,4.3s-1,4.3-6.1,4.3h0ZM34.3,30.6c0-.6,0-1.3-1.5-1.3v2.6c1.5,0,1.5-.7,1.5-1.3Z"/>
    <path class="st1" d="M50.5,37.6c-4.8,0-9.5,0-9.5,0h0c0-.5,0-.9,0-1.4v-8.5c0-.5,0-1,0-1.4h5.2c0,.5,0,1,0,1.4v6.9h2.2c.7,0,1.5,0,2.2-.2-.2,1.7,0,3.2,0,3.2Z"/>
    <path class="st1" d="M52,37.9v-.2c.3-.4.5-1,.6-1.4l2.5-8.6c0-.5.3-1.4.3-1.4,3.6.1,8.3,0,8.3,0,0,.5.2,1,.3,1.4l2.4,8.5c0,.4.3.8.4,1.2h0c-2.8,0-4.9,0-4.9,0,0-.5-.3-1-.4-1.5v-.4h-4v.4c-.3.5-.5,1.3-.6,1.8-2.5,0-5,.1-5,.1ZM58.6,32.9h1.9l-.9-2.6-1,2.6Z"/>
    <path class="st1" d="M75.2,27.6c.3-.4.5-.9.8-1.4h5.3c-.3.5-.7,1-1,1.5l-3.6,5.8h0v2.4c0,.5,0,1,0,1.5h-5.1c0-.5,0-1,0-1.6v-2.3h0c0,0-3.6-5.9-3.6-5.9-.3-.5-.6-1-1-1.5h5.3c.2.5.5.9.7,1.4l1.1,1.8,1.1-1.7Z"/>
    <path class="st1" d="M88.4,37.9v-.2c.3-.4.5-1,.6-1.4l2.5-8.6c0-.5.3-1.4.3-1.4,3.6.1,8.3,0,8.3,0,0,.5.2,1,.3,1.4l2.4,8.5c0,.4.3.8.4,1.2h0c-2.8,0-4.9,0-4.9,0,0-.5-.3-1-.4-1.5v-.4h-4v.4c-.3.5-.5,1.3-.6,1.8-2.6,0-5,.1-5,.1ZM94.9,32.9h1.9l-.9-2.6-1,2.6Z"/>
    <path class="st1" d="M115.5,31.2c0,.5-.2,1.1-.2,1.6v3.7c-.7.7-2.4,1.2-4.7,1.2-4.4,0-6.6-2.6-6.6-5.8s2.2-5.8,6.6-5.8,2.4.2,3.2.5v3.6c-.5-.4-1.3-.6-2.1-.6-1.6,0-2.9.5-2.9,2.6s.6,1.5,1.6,1.8h0c0-1,0-1.9-.3-2.8h5.4Z"/>
    <path class="st1" d="M116.9,37.9v-.2c.3-.4.5-1,.6-1.4l2.5-8.6c0-.5.3-1.4.3-1.4,3.6.1,8.3,0,8.3,0,.1.5.2,1,.3,1.4l2.4,8.5c.1.4.3.8.4,1.2h.1c-2.8,0-4.9,0-4.9,0,0-.5-.3-1-.4-1.5v-.4h-4v.4c-.3.5-.5,1.3-.6,1.8-2.6,0-5,.1-5,.1ZM123.4,32.9h1.9l-.9-2.6-1,2.6Z"/>
    <path class="st1" d="M138.7,36.1c0,.4,0,.8.1,1.2v.3c.1,0-2.9,0-5.2,0,0,0,.1-1,.1-1.5v-8.3c0-.5,0-1-.1-1.4h0s3.7.1,5.3,0c0,0-.1,1-.1,1.5v8.2h-.1Z"/>
    <path class="st1" d="M147.7,37.6c-.7-1.4-1.5-3-2.2-4.3v2.6c0,.5,0,1,.1,1.6h-4.5c.1-.5.1-1,.1-1.5v-8c0-.5-.1-1.5-.1-1.5,2.1.1,4.4,0,4.4,0,.6,1.1,1.4,2.7,2.3,4.4v-2.7c0-.6-.1-1.9-.1-1.9,2.1.1,4.6,0,4.6,0v.2c0,.5-.1,1-.1,1.5v8.1c0,.6,0,1.1.1,1.7-2.7-.3-4.6-.2-4.6-.2Z"/>
  </g>
</svg>